 http://makeagif.com/media/9-20-2011/9qDvdz.gif
 
http://i.imgur.com/azxj2.png

Format                                           : Matroska
File size                        : 945 MiB
Duration                                        : 2h 3mn
Overall bit rate                                : 1 068 Kbps


Video
ID                                              : 1
Format                                          : MPEG-4 Visual
Format profile                                  : Advanced Simple@L5
Format settings, BVOP            : Yes
Format settings, QPel            : No
Format settings, GMC                    : No warppoints
Format settings, Matrix          : Default (H.263)
Duration                                        : 2h 3mn
Bit rate                                        : 855 Kbps
Width                            : 720 pixels
Height                                          : 304 pixels
Display aspect ratio                    : 2.35:1
Frame rate                                      : 23.976 fps
Color space                      : YUV
Chroma subsampling                      : 4:2:0
Bit depth                        : 8 bits
Scan type                        : Progressive
Compression mode                                : Lossy
Bits/(Pixel*Frame)                      : 0.163
Stream size                      : 756 MiB (80%)


Audio
ID                                              : 2
Format                                          : AC-3
Format/Info                      : Audio Coding 3
Mode extension                                  : CM (complete main)
Muxing mode                      : Header stripping
Codec ID                                        : A_AC3
Duration                                        : 2h 3mn
Bit rate mode                    : Constant
Bit rate                                        : 192 Kbps
Channel(s)                                      : 2 channels
Channel positions                : Front: L R
Sampling rate                    : 48.0 KHz
Bit depth                        : 16 bits
Compression mode                                : Lossy
Stream size                      : 170 MiB (18%)


 
http://i.imgur.com/RWK8z.png 
http://i.imgur.com/azxj2.png 
http://i.imgur.com/KNgfK.png 
http://i.imgur.com/iH0HW.png 
http://i.imgur.com/2cre8.png 
http://i.imgur.com/3cE1P.png 
http://i.imgur.com/7OtWq.png 
http://i.imgur.com/zxEAU.png 
http://i.imgur.com/07ySv.png
